Coordinates
version=1
nRows=27
nColumns=12
inDegrees=yes

Units are S.I. units (second, meters, Newtons, ...)
Angles are in degrees

endheader
time	SC_y	SC_z	SC_x	AC_y	AC_z	AC_x	GH_y	GH_z	GH_yy	EL_x	PS_y
       0.0              -53.16          25.82          21.87          53.42         -14.88         -1.678          74.39          38.85         -158.4          84.78          76.35
   0.04895              -53.16          25.81          21.87          53.42         -14.88         -1.679          74.36          38.85         -158.4          84.78          76.34
   0.09791              -53.15          25.81          21.87          53.42         -14.87         -1.679          74.33          38.86         -158.4          84.78          76.33
    0.1469              -53.15          25.81          21.87          53.42         -14.87         -1.679           74.3          38.87         -158.4          84.77          76.32
    0.1958              -53.15           25.8          21.87          53.42         -14.87         -1.679          74.27          38.88         -158.3          84.77          76.31
    0.2448              -53.15           25.8          21.87          53.42         -14.87          -1.68          74.23          38.88         -158.3          84.77           76.3
    0.2937              -53.14          25.79          21.87          53.43         -14.86          -1.68          74.19          38.89         -158.3          84.77          76.28
    0.3427              -53.14          25.78          21.87          53.43         -14.86          -1.68          74.15           38.9         -158.3          84.77          76.27
    0.3916              -53.14          25.78          21.87          53.43         -14.85         -1.681           74.1          38.91         -158.3          84.76          76.25
    0.4406              -53.13          25.77          21.87          53.43         -14.85         -1.681          74.05          38.92         -158.3          84.76          76.24
    0.4895              -53.13          25.76          21.87          53.43         -14.85         -1.682           74.0          38.93         -158.2          84.76          76.22
    0.5385              -53.13          25.75          21.87          53.43         -14.84         -1.682          73.95          38.95         -158.2          84.75           76.2
    0.5875              -53.12          25.75          21.88          53.43         -14.84         -1.683          73.89          38.96         -158.2          84.75          76.18
    0.6364              -53.12          25.74          21.88          53.44         -14.83         -1.683          73.82          38.97         -158.2          84.75          76.16
    0.6854              -53.11          25.73          21.88          53.44         -14.82         -1.684          73.75          38.99         -158.2          84.74          76.13
    0.7343              -53.11          25.72          21.88          53.44         -14.82         -1.684          73.68          39.01         -158.1          84.74          76.11
    0.7833               -53.1           25.7          21.88          53.44         -14.81         -1.685          73.59          39.02         -158.1          84.74          76.08
    0.8322               -53.1          25.69          21.88          53.44          -14.8         -1.686           73.5          39.04         -158.1          84.73          76.05
    0.8812              -53.09          25.68          21.88          53.45         -14.79         -1.687          73.41          39.07         -158.0          84.72          76.01
    0.9301              -53.08          25.66          21.88          53.45         -14.78         -1.688           73.3          39.09         -158.0          84.72          75.98
    0.9791              -53.08          25.64          21.88          53.45         -14.77         -1.689          73.18          39.12         -158.0          84.71          75.94
     1.028              -53.07          25.63          21.88          53.46         -14.76          -1.69          73.05          39.14         -157.9          84.71          75.89
     1.077              -53.06           25.6          21.88          53.46         -14.75         -1.691          72.91          39.18         -157.9           84.7          75.84
     1.126              -53.05          25.58          21.88          53.47         -14.74         -1.692          72.75          39.21         -157.8          84.69          75.79
     1.175              -53.04          25.56          21.89          53.47         -14.72         -1.694          72.57          39.25         -157.8          84.68          75.73
     1.224              -53.02          25.53          21.89          53.48          -14.7         -1.695          72.37          39.29         -157.7          84.67          75.66
     1.273              -53.01           25.5          21.89          53.48         -14.68         -1.697          72.15          39.34         -157.6          84.66          75.58
